<?xml version="1.0" standalone="no"?><!DOCTYPE svg PUBLIC "-//W3C//DTD SVG 1.1//EN" "http://www.w3.org/Graphics/SVG/1.1/DTD/svg11.dtd"><svg t="1582990749044" class="icon" viewBox="0 0 1024 1024" version="1.1" xmlns="http://www.w3.org/2000/svg" p-id="5492" xmlns:xlink="http://www.w3.org/1999/xlink" width="48" height="48"><defs><style type="text/css"></style></defs><path d="M781.674667 704c-78.293333 0-141.994667-63.68-141.994667-141.952a142.165333 142.165333 0 0 1 141.994667-141.994667c78.272 0 141.952 63.701333 141.952 141.994667A142.122667 142.122667 0 0 1 781.674667 704z m0-241.28a99.434667 99.434667 0 0 0-99.328 99.328A99.413333 99.413333 0 0 0 781.674667 661.333333a99.413333 99.413333 0 0 0 99.285333-99.285333 99.413333 99.413333 0 0 0-99.285333-99.328z" p-id="5493"></path><path d="M1002.666667 897.365333H560.618667a21.333333 21.333333 0 0 1-21.333334-21.333333c0-9.301333 0.554667-18.581333 1.642667-27.861333l-15.701333 6.016a60.202667 60.202667 0 0 1-71.189334-23.082667l-107.776-165.781333a59.157333 59.157333 0 0 1-8.32-44.778667 59.029333 59.029333 0 0 1 25.792-37.525333 59.541333 59.541333 0 0 1 82.24 17.429333l81.514667 125.44 103.786667-39.872a241.898667 241.898667 0 0 1 78.357333-41.472 21.312 21.312 0 1 1 12.757333 40.704 199.445333 199.445333 0 0 0-66.858666 36.032c-1.749333 1.408-3.733333 2.56-5.824 3.370667l-123.050667 47.253333a21.312 21.312 0 0 1-25.536-8.298667l-90.901333-139.904a16.810667 16.810667 0 0 0-28.202667 18.346667l107.754667 165.781333a17.024 17.024 0 0 0 20.202666 6.506667l51.925334-19.946667a21.354667 21.354667 0 0 1 28.117333 25.92 198.613333 198.613333 0 0 0-6.912 34.368h397.077333a198.592 198.592 0 0 0-139.242666-169.386666 21.333333 21.333333 0 0 1 12.672-40.746667A241.216 241.216 0 0 1 1024 876.032a21.333333 21.333333 0 0 1-21.333333 21.333333z" p-id="5494"></path><path d="M403.008 734.826667H73.984a21.333333 21.333333 0 0 1-21.333333-21.333334V147.946667a21.333333 21.333333 0 0 1 21.333333-21.333334h725.568a21.333333 21.333333 0 0 1 21.333333 21.333334v294.784a21.333333 21.333333 0 1 1-42.666666 0V169.28H95.317333v522.88h307.690667a21.333333 21.333333 0 1 1 0 42.666667z" p-id="5495"></path><path d="M358.016 616.128a21.290667 21.290667 0 0 1-17.792-9.536l-126.229333-190.144a21.333333 21.333333 0 1 1 35.541333-23.594667l126.229333 190.165334a21.333333 21.333333 0 0 1-17.749333 33.109333zM660.992 277.141333H372.394667a21.333333 21.333333 0 0 1 0-42.666666h288.597333a21.333333 21.333333 0 1 1 0 42.666666zM660.992 378.816H372.394667a21.333333 21.333333 0 0 1 0-42.666667h288.597333a21.333333 21.333333 0 1 1 0 42.666667zM600.618667 480.512H372.394667a21.333333 21.333333 0 0 1 0-42.666667h228.224a21.333333 21.333333 0 1 1 0 42.666667zM453.866667 837.632H21.333333a21.333333 21.333333 0 1 1 0-42.666667h432.533334a21.333333 21.333333 0 1 1 0 42.666667z" p-id="5496"></path></svg>