<?xml version="1.0" standalone="no"?><!DOCTYPE svg PUBLIC "-//W3C//DTD SVG 1.1//EN" "http://www.w3.org/Graphics/SVG/1.1/DTD/svg11.dtd"><svg t="1582990725389" class="icon" viewBox="0 0 1024 1024" version="1.1" xmlns="http://www.w3.org/2000/svg" p-id="5217" xmlns:xlink="http://www.w3.org/1999/xlink" width="48" height="48"><defs><style type="text/css"></style></defs><path d="M513.322667 693.76a60.053333 60.053333 0 0 1-40.341334-15.424l-10.624-9.578667a56.896 56.896 0 0 1-2.688-82.453333 60.330667 60.330667 0 0 1 51.989334-17.301333c14.4-37.248 29.056-99.072 13.525333-176.746667a21.333333 21.333333 0 0 1 10.282667-22.677333c5.930667-3.413333 146.197333-84.010667 198.421333-111.168a21.333333 21.333333 0 0 1 24.128 3.093333l116.416 105.088a21.290667 21.290667 0 0 1 4.928 25.066667c-24.917333 51.882667-99.669333 191.616-102.826667 197.525333a20.970667 20.970667 0 0 1-21.418666 11.114667 388.394667 388.394667 0 0 0-46.997334-2.901334c-59.946667 0-107.008 14.506667-136.533333 27.093334a56.597333 56.597333 0 0 1-15.210667 51.285333 60.586667 60.586667 0 0 1-43.050666 17.984z m-10.752-82.752a17.066667 17.066667 0 0 0-12.352 5.056 14.506667 14.506667 0 0 0-4.245334 10.624 14.549333 14.549333 0 0 0 4.949334 10.389333l10.624 9.578667c6.634667 5.973333 18.069333 5.632 24.277333-0.704a14.101333 14.101333 0 0 0 1.066667-18.88 21.333333 21.333333 0 0 1-4.309334-10.154667 21.525333 21.525333 0 0 1-10.432-3.221333 18.218667 18.218667 0 0 0-9.578666-2.688z m67.157333-211.904c13.162667 82.474667-3.584 148.224-19.370667 188.074667 33.045333-14.634667 87.744-32.448 157.76-32.448 12.394667 0 24.981333 0.554667 37.546667 1.664 17.450667-32.725333 64.341333-120.981333 88.256-168.917334l-93.397333-84.288c-47.786667 25.642667-137.365333 76.757333-170.794667 95.914667z" p-id="5218"></path><path d="M879.936 418.176a21.226667 21.226667 0 0 1-14.293333-5.504l-151.488-136.746667a21.333333 21.333333 0 0 1-0.981334-30.72L835.925333 119.466667a21.333333 21.333333 0 0 1 29.568-0.917334l151.466667 136.746667a21.333333 21.333333 0 0 1 0.981333 30.72l-122.730666 125.738667a21.269333 21.269333 0 0 1-15.274667 6.421333z m-120.704-159.061333l119.765333 108.138666 92.906667-95.189333-119.765333-108.138667-92.906667 95.189334zM677.205333 516.245333c-36.608 0-66.368-29.013333-66.368-64.661333s29.781333-64.661333 66.368-64.661333 66.368 28.992 66.368 64.661333-29.76 64.661333-66.368 64.661333z m0-86.656c-13.056 0-23.701333 9.856-23.701333 21.994667s10.645333 21.994667 23.701333 21.994667 23.701333-9.856 23.701334-21.994667c0-12.117333-10.645333-21.994667-23.701334-21.994667z" p-id="5219"></path><path d="M805.205333 910.997333H102.314667A102.485333 102.485333 0 0 1 0 808.618667V256.576A102.442667 102.442667 0 0 1 102.314667 154.24h702.890666a21.333333 21.333333 0 1 1 0 42.666667H102.314667A59.733333 59.733333 0 0 0 42.666667 256.576v552.042667a59.754667 59.754667 0 0 0 59.648 59.712h702.890666a59.733333 59.733333 0 0 0 59.669334-59.669334V390.442667a21.333333 21.333333 0 1 1 42.666666 0v418.218666a102.464 102.464 0 0 1-102.336 102.336z" p-id="5220"></path><path d="M538.602667 323.562667H149.482667a21.333333 21.333333 0 0 1 0-42.666667h389.12a21.333333 21.333333 0 1 1 0 42.666667zM471.850667 442.858667H149.482667a21.333333 21.333333 0 0 1 0-42.666667h322.368a21.333333 21.333333 0 0 1 0 42.666667zM471.850667 562.176H149.482667a21.333333 21.333333 0 1 1 0-42.666667h322.368a21.333333 21.333333 0 1 1 0 42.666667zM399.424 681.408H149.482667a21.333333 21.333333 0 1 1 0-42.666667h249.941333a21.333333 21.333333 0 1 1 0 42.666667zM753.024 800.704H149.482667a21.333333 21.333333 0 1 1 0-42.666667h603.541333a21.333333 21.333333 0 1 1 0 42.666667z" p-id="5221"></path></svg>