<?xml version="1.0" standalone="no"?><!DOCTYPE svg PUBLIC "-//W3C//DTD SVG 1.1//EN" "http://www.w3.org/Graphics/SVG/1.1/DTD/svg11.dtd"><svg t="1582990741583" class="icon" viewBox="0 0 1024 1024" version="1.1" xmlns="http://www.w3.org/2000/svg" p-id="5356" xmlns:xlink="http://www.w3.org/1999/xlink" width="48" height="48"><defs><style type="text/css"></style></defs><path d="M179.870896 1023.999787a21.269329 21.269329 0 0 1-15.082664-6.250666l-158.506633-158.506633a21.247996 21.247996 0 0 1 0-30.165327l440.170575-440.127909-157.567968-157.5893a82.367983 82.367983 0 0 1-24.255994-58.709321c0-22.229329 8.618665-43.093324 24.255994-58.709321l89.685315-89.685315c31.231993-31.231993 86.122649-31.253327 117.397309 0a20.778662 20.778662 0 0 1 1.578666 1.770666c35.349326 44.117324 99.242646 106.239978 130.66664 106.239978 9.002665-0.874666 17.87733-4.031999 27.285327-7.381332 13.994664-4.991999 28.479994-10.154665 43.925325-10.154664 48.31999 0 112.02131 46.762657 153.727968 93.11998 22.911995 25.493328 60.714654 74.858651 56.021321 119.018642-1.365333 12.863997-5.525332 25.429328-9.535998 37.589326-3.562666 10.730664-6.911999 20.885329-7.722665 29.333327-2.901333 30.05866 61.631987 97.002646 106.154645 132.799972 0.576 0.469333 1.173333 1.002666 1.706666 1.536a83.157316 83.157316 0 0 1 0.021333 117.418642l-89.727981 89.663981a82.325316 82.325316 0 0 1-58.666654 24.255995 82.28265 82.28265 0 0 1-58.730655-24.298661l-157.610634-157.525301-440.106575 440.106575A21.269329 21.269329 0 0 1 179.870896 1023.999787z m-128.341307-179.839963l128.341307 128.341307 440.106575-440.127909a21.311996 21.311996 0 0 1 30.165327 0l172.714631 172.629298c7.573332 7.594665 17.706663 11.775998 28.543994 11.775997a39.893325 39.893325 0 0 0 28.479994-11.733331l89.749314-89.685314a40.426658 40.426658 0 0 0 0.682667-56.362655c-23.551995-19.071996-126.933307-106.538644-120.853308-169.322632 1.258666-13.205331 5.546666-26.154661 9.663998-38.655991 3.477333-10.495998 6.741332-20.415996 7.637331-28.714661 2.090666-19.626663-15.295997-52.565322-45.333323-85.951982-40.490658-45.013324-92.949314-78.975984-122.005308-78.975984-8.063998 0-19.007996 3.903999-29.589328 7.658665-11.327998 4.031999-23.061329 8.213332-35.306659 9.535998-62.762654 6.890665-150.655969-97.493313-169.471965-120.874641-15.25333-14.463997-41.450658-14.207997-56.341321 0.725333l-89.706648 89.685315c-7.573332 7.573332-11.754664 17.727996-11.754664 28.543994s4.159999 20.970662 11.754664 28.52266l172.650631 172.671964a21.311996 21.311996 0 0 1 0 30.165327L51.529589 844.159824z" p-id="5357"></path></svg>