<?xml version="1.0" standalone="no"?><!DOCTYPE svg PUBLIC "-//W3C//DTD SVG 1.1//EN" "http://www.w3.org/Graphics/SVG/1.1/DTD/svg11.dtd"><svg t="1582990711039" class="icon" viewBox="0 0 1024 1024" version="1.1" xmlns="http://www.w3.org/2000/svg" p-id="4940" xmlns:xlink="http://www.w3.org/1999/xlink" width="48" height="48"><defs><style type="text/css"></style></defs><path d="M711.827388 1024l-1.0664-0.021328a21.328001 21.328001 0 0 1-19.387153-15.292177l-98.49271-334.380405 40.907107-12.028993 81.259685 275.835042 65.583604-161.431642a21.541281 21.541281 0 0 1 23.375489-12.988753l149.530618 25.657585-183.058236-245.911855 34.210114-25.465634L1019.56912 806.667666a21.328001 21.328001 0 0 1-20.688162 33.740899l-185.169707-31.778722-82.112805 202.082812a21.370657 21.370657 0 0 1-19.771058 13.287345zM286.845634 987.209198a21.328001 21.328001 0 0 1-20.837457-16.742481l-43.061235-195.791053-202.253437-6.462384a21.285345 21.285345 0 0 1-13.521953-37.196034l240.622511-214.517038 28.38757 31.842706-200.760476 178.984587 165.462634 5.289345a21.285345 21.285345 0 0 1 20.154961 16.721153l33.954178 154.350745 123.809048-239.428142 37.878531 19.579105-150.89561 291.85237c-3.689744 7.123552-11.047905 11.517121-18.939265 11.517121z" p-id="4941"></path><path d="M597.978517 688.531867c-13.308673 0-28.472882-3.241856-43.10389-6.419728-10.685329-2.282096-21.711905-4.670832-27.726402-4.670833s-17.041073 2.367408-27.705074 4.670833c-20.410897 4.37224-42.208115 8.467217-57.180371 4.90544-16.315921-3.967008-32.631842-17.403649-48.435891-30.435058-8.339249-6.867616-16.977089-13.991169-22.266434-16.699825-5.310672-2.729984-16.209281-5.673248-26.723985-8.467217-19.899025-5.332-40.459219-10.855953-53.04274-21.733233-12.690161-11.069233-20.816129-30.52037-28.643506-49.310339-4.116304-9.853537-8.360577-20.005665-11.709072-24.804466-3.348496-4.734816-11.538449-12.199617-19.472466-19.451137-15.164209-13.863201-30.861618-28.216946-36.876114-43.765058-6.035824-15.612097-3.988336-36.577522-2.02616-56.860452 0.981088-10.066817 2.090144-21.477297 1.364992-27.171874-0.682496-5.673248-4.564192-16.529201-7.998-26.084145-6.846288-19.195201-13.948513-39.072898-11.901025-55.6021 2.068816-16.550529 13.777889-34.14613 25.124385-51.144547 5.65192-8.488545 12.071649-18.150129 14.161793-23.546114 2.090144-5.395984 3.796384-16.742481 5.310673-26.766641 3.028576-20.112305 6.163792-40.907107 15.825377-54.599684 9.299009-13.180705 27.129218-22.799633 44.38357-32.098642 9.682913-5.22536 20.666833-11.133217 24.804466-15.164209 4.137632-4.030992 10.152129-12.050321 15.974673-19.792385 13.052737-17.403649 26.57469-35.404482 42.122803-43.42381 15.548113-7.998 38.283762-8.659169 60.272931-9.299009 9.832209-0.277264 20.005665-0.575856 25.764226-1.620928 5.801216-1.045072 17.019745-6.547696 26.915938-11.389153C492.767487 9.149713 510.960272 0.255936 527.169553 0.255936c16.742481 0 35.895026 9.235025 54.386403 18.150129 9.789553 4.713488 19.920353 9.597601 25.764226 11.005249 5.822544 1.407648 17.083729 1.684912 27.982338 1.962176 20.602849 0.511872 41.930851 1.0664 56.775139 8.680497 14.993585 7.699408 27.64109 24.697826 39.862035 41.141714 6.355744 8.552529 12.946097 17.403649 17.360993 21.264017 4.393568 3.817712 14.183121 9.171041 23.674081 14.332417 18.128801 9.896193 36.854786 20.133633 46.452387 33.804882 9.640257 13.671249 12.796801 34.508706 15.825377 54.663668 1.556944 10.472049 3.1992 21.306673 5.268017 26.660001 2.090144 5.374656 8.232609 14.588353 14.140464 23.48213 11.346497 17.041073 23.076897 34.658002 25.145714 51.187203 2.047488 16.593185-5.054736 36.428226-11.922353 55.623428-3.41248 9.554945-7.294176 20.410897-7.998 26.126801-0.682496 5.673248 0.42656 17.062401 1.364992 27.129218 1.983504 20.304257 4.009664 41.291011-2.047488 56.903108-6.035824 15.505457-21.690577 29.816546-36.812131 43.658418-7.955344 7.25152-16.166625 14.780305-19.515121 19.536449-3.348496 4.7988-7.592768 14.950929-11.709073 24.783138-7.848704 18.811297-15.974673 38.262434-28.643505 49.267683-12.583521 10.919937-33.143714 16.443889-53.000084 21.775889-10.536033 2.836624-21.434641 5.75856-26.723985 8.467217-5.395984 2.751312-14.033825 9.874865-22.394402 16.763809-15.782721 12.988753-32.11997 26.446722-48.414563 30.371074a57.542948 57.542948 0 0 1-14.012497 1.535616z m-70.830292-53.725235c10.557361 0 23.247521 2.729984 36.684162 5.630592 11.922353 2.55936 25.380322 5.459968 34.167458 5.459968a19.472465 19.472465 0 0 0 4.052321-0.31992c6.739648-1.642256 21.519953-13.799217 31.288178-21.839873 10.578689-8.723153 20.560193-16.955761 30.008497-21.775889 9.299009-4.7988 21.839873-8.168625 35.148547-11.730401 12.327585-3.30584 30.968258-8.317921 36.086978-12.775473 5.097392-4.436224 12.412897-21.903857 17.254353-33.484962 5.22536-12.498209 10.152129-24.313922 16.187953-32.887778 6.035824-8.552529 15.548113-17.254353 25.593602-26.46805 9.341665-8.531201 23.439473-21.413313 25.849537-27.641089 2.367408-6.163792 0.554528-24.911106-0.63984-37.345331-1.322336-13.436641-2.538032-26.126802-1.258352-36.49221 1.301008-10.408065 5.609264-22.458385 10.173457-35.233858 4.180288-11.751729 10.536033-29.517954 9.746896-36.044323-0.810464-6.50504-11.346497-22.309089-18.299425-32.781138-7.550112-11.303841-14.652337-21.967841-18.427393-31.714738-3.775056-9.768225-5.673248-22.373073-7.67808-35.724402-1.855536-12.348913-4.670832-31.010914-8.509873-36.449554-3.924352-5.609264-20.858785-14.844289-32.055986-20.944097-11.986337-6.547696-23.311505-12.732817-31.202866-19.579106-7.934016-6.910272-15.548113-17.169041-23.631425-28.003665-7.550112-10.152129-18.960593-25.486962-25.124386-28.664834s-25.529618-3.647088-38.369074-3.988336c-13.713905-0.362576-26.660002-0.682496-36.876115-3.135217-10.258769-2.474048-21.925185-8.083313-34.274098-14.055152-11.517121-5.523952-28.878114-13.905857-35.873698-13.905857-6.334416 0-22.522369 7.934016-33.229026 13.159377-13.607265 6.654336-26.446722 12.946097-38.070483 15.057568-8.915105 1.620928-20.197617 1.940848-32.141298 2.282097-13.948513 0.42656-35.063234 1.023744-41.994834 4.58552-6.82496 3.51912-19.280513 20.112305-27.53445 31.096226-7.102224 9.448305-13.777889 18.363409-20.261601 24.697825-8.424561 8.232609-21.029409 15.036241-34.380738 22.223778-10.450721 5.630592-26.25477 14.140465-29.77389 19.131217-3.83904 5.43864-6.654336 24.036658-8.488545 36.364242-2.02616 13.393985-3.924352 26.062818-7.720736 35.85237-3.775056 9.746897-10.898609 20.432225-18.427393 31.757394-6.952928 10.450721-17.467633 26.233442-18.299425 32.802466-0.810464 6.462384 5.801216 24.932434 9.746896 35.980339 4.564192 12.775473 8.872449 24.847122 10.152129 35.233858 1.27968 10.365409 0.042656 23.076897-1.258352 36.513538-1.215696 12.434225-3.028576 31.181538-0.63984 37.366659 2.388736 6.206448 16.507873 19.109889 25.849537 27.641089 10.045489 9.171041 19.536449 17.851537 25.550946 26.36141 6.07848 8.637841 11.005249 20.453553 16.209281 32.951762 4.820128 11.559777 12.114305 29.02741 17.233025 33.50629 5.11872 4.414896 23.802049 9.426977 36.150962 12.754145 13.287345 3.561776 25.82821 6.910272 35.191202 11.751729 9.362993 4.820128 19.323169 13.010081 29.88053 21.733233 9.768225 8.061985 24.54853 20.240273 31.288178 21.861201a18.598017 18.598017 0 0 0 4.030993 0.31992c8.808465 0 22.287761-2.900608 34.210114-5.459968 13.479297-2.900608 26.14813-5.630592 36.70549-5.630592z" p-id="4942"></path><path d="M527.190881 559.220195c-120.673832 0-218.846622-96.381238-218.846622-214.836957S406.517049 129.54628 527.190881 129.54628c120.673832 0 218.846622 96.381238 218.846622 214.836958s-98.17279 214.836957-218.846622 214.836957z m0-387.017912c-97.149046 0-176.190619 77.250021-176.190619 172.180955 0 94.952262 79.041573 172.180955 176.190619 172.180954s176.190619-77.250021 176.190619-172.180954c0-94.930934-79.041573-172.180955-176.190619-172.180955z" p-id="4943"></path></svg>