<?xml version="1.0" standalone="no"?><!DOCTYPE svg PUBLIC "-//W3C//DTD SVG 1.1//EN" "http://www.w3.org/Graphics/SVG/1.1/DTD/svg11.dtd"><svg t="1582990718783" class="icon" viewBox="0 0 1024 1024" version="1.1" xmlns="http://www.w3.org/2000/svg" p-id="5078" xmlns:xlink="http://www.w3.org/1999/xlink" width="48" height="48"><defs><style type="text/css"></style></defs><path d="M479.040034 684.224354a21.269311 21.269311 0 0 1-15.082651-6.25066L43.755154 257.792798a21.333311 21.333311 0 0 1 0-30.165302 316.35167 316.35167 0 0 1 225.173099-93.269236c85.055911 0 165.034495 33.130632 225.194432 93.269236 124.138537 124.181204 124.138537 326.20766 0 450.346198a21.183978 21.183978 0 0 1-15.082651 6.25066zM89.579107 243.286147l388.884928 388.863595c92.77857-108.202554 87.935908-271.89305-14.506652-374.356944a274.090381 274.090381 0 0 0-195.02913-80.767916 273.663715 273.663715 0 0 0-179.349146 66.261265z" p-id="5079"></path><path d="M554.602622 348.139371l-30.165302-30.165302 132.181196-132.181196a77.269253 77.269253 0 0 0 0-109.098553l-11.562655-11.562655c-29.05597-29.013303-80.21325-28.99197-109.141219 0L403.733446 197.334194l-30.165302-30.165301 132.181196-132.202529A118.954543 118.954543 0 0 1 590.485252 0.001067c32.0853 0 62.186602 12.43732 84.735911 34.98663l11.562655 11.562655a119.935875 119.935875 0 0 1 0.021333 169.429156l-132.202529 132.159863zM230.528293 641.856398a150.293177 150.293177 0 0 1-106.581222-44.053287c-58.773272-58.794605-58.773272-154.453172-0.021333-213.269112a149.418511 149.418511 0 0 1 54.613276-34.901297l14.677318 40.063959a107.007889 107.007889 0 0 0-39.103959 25.00264 108.309221 108.309221 0 0 0 0.021333 152.917174 108.202554 108.202554 0 0 0 177.898481-39.061292l40.063959 14.677318a149.034511 149.034511 0 0 1-34.922631 54.527943 150.485177 150.485177 0 0 1-106.645222 44.095954z" p-id="5080"></path><path d="M518.229327 1024a21.333311 21.333311 0 0 1-13.162653-38.14396l428.77822-335.423651-340.586312-370.60228a21.333311 21.333311 0 1 1 31.423967-28.86397l356.202296 387.604929c4.010662 4.373329 6.037327 10.239989 5.567994 16.191983a21.439978 21.439978 0 0 1-8.127991 15.061318l-446.975535 349.652969a21.205311 21.205311 0 0 1-13.119986 4.522662z" p-id="5081"></path><path d="M878.250285 1024H58.837805a21.333311 21.333311 0 1 1 0-42.666622h819.41248a21.333311 21.333311 0 1 1 0 42.666622z" p-id="5082"></path></svg>