<?xml version="1.0" standalone="no"?><!DOCTYPE svg PUBLIC "-//W3C//DTD SVG 1.1//EN" "http://www.w3.org/Graphics/SVG/1.1/DTD/svg11.dtd"><svg t="1582990484749" class="icon" viewBox="0 0 1024 1024" version="1.1" xmlns="http://www.w3.org/2000/svg" p-id="3638" xmlns:xlink="http://www.w3.org/1999/xlink" width="200" height="200"><defs><style type="text/css"></style></defs><path d="M300.138667 1024H21.333333a21.333333 21.333333 0 0 1-21.333333-21.333333V21.333333a21.333333 21.333333 0 0 1 21.333333-21.333333h278.805334a21.333333 21.333333 0 0 1 21.333333 21.333333v981.333334a21.333333 21.333333 0 0 1-21.333333 21.333333zM42.666667 981.333333h236.138666V42.666667H42.666667v938.666666z" p-id="3639"></path><path d="M300.138667 206.890667H21.333333a21.333333 21.333333 0 0 1 0-42.666667h278.805334a21.333333 21.333333 0 0 1 0 42.666667zM300.138667 299.264H21.333333a21.333333 21.333333 0 0 1 0-42.666667h278.805334a21.333333 21.333333 0 0 1 0 42.666667zM300.138667 391.637333H21.333333a21.333333 21.333333 0 0 1 0-42.666666h278.805334a21.333333 21.333333 0 0 1 0 42.666666zM300.138667 848.256H21.333333a21.333333 21.333333 0 1 1 0-42.666667h278.805334a21.333333 21.333333 0 1 1 0 42.666667zM651.392 1024H372.608a21.333333 21.333333 0 0 1-21.333333-21.333333V21.333333a21.333333 21.333333 0 0 1 21.333333-21.333333h278.784a21.333333 21.333333 0 0 1 21.333333 21.333333v981.333334a21.333333 21.333333 0 0 1-21.333333 21.333333z m-257.450667-42.666667h236.117334V42.666667H393.941333v938.666666z" p-id="3640"></path><path d="M651.392 206.890667H372.608a21.333333 21.333333 0 0 1 0-42.666667h278.784a21.333333 21.333333 0 1 1 0 42.666667zM651.392 299.264H372.608a21.333333 21.333333 0 0 1 0-42.666667h278.784a21.333333 21.333333 0 1 1 0 42.666667zM651.392 391.637333H372.608a21.333333 21.333333 0 0 1 0-42.666666h278.784a21.333333 21.333333 0 1 1 0 42.666666zM651.392 848.256H372.608a21.333333 21.333333 0 1 1 0-42.666667h278.784a21.333333 21.333333 0 1 1 0 42.666667zM1002.666667 1024H723.882667a21.333333 21.333333 0 0 1-21.333334-21.333333V21.333333a21.333333 21.333333 0 0 1 21.333334-21.333333H1002.666667a21.333333 21.333333 0 0 1 21.333333 21.333333v981.333334a21.333333 21.333333 0 0 1-21.333333 21.333333z m-257.450667-42.666667H981.333333V42.666667H745.216v938.666666z" p-id="3641"></path><path d="M1002.666667 206.890667H723.882667a21.333333 21.333333 0 1 1 0-42.666667H1002.666667a21.333333 21.333333 0 1 1 0 42.666667zM1002.666667 299.264H723.882667a21.333333 21.333333 0 1 1 0-42.666667H1002.666667a21.333333 21.333333 0 1 1 0 42.666667zM1002.666667 391.637333H723.882667a21.333333 21.333333 0 1 1 0-42.666666H1002.666667a21.333333 21.333333 0 1 1 0 42.666666zM1002.666667 848.256H723.882667a21.333333 21.333333 0 1 1 0-42.666667H1002.666667a21.333333 21.333333 0 1 1 0 42.666667z" p-id="3642"></path></svg>