<?xml version="1.0" standalone="no"?><!DOCTYPE svg PUBLIC "-//W3C//DTD SVG 1.1//EN" "http://www.w3.org/Graphics/SVG/1.1/DTD/svg11.dtd"><svg t="1582990766854" class="icon" viewBox="0 0 1024 1024" version="1.1" xmlns="http://www.w3.org/2000/svg" p-id="5631" xmlns:xlink="http://www.w3.org/1999/xlink" width="48" height="48"><defs><style type="text/css"></style></defs><path d="M895.125333 698.666667H552.192v-42.666667h342.933333c47.552 0 86.208-36.074667 86.208-80.448V123.114667C981.333333 78.762667 942.677333 42.666667 895.125333 42.666667H128.896C81.344 42.666667 42.666667 78.762667 42.666667 123.114667v452.437333c0 44.373333 38.677333 80.448 86.229333 80.448h16.533333v42.666667h-16.533333C57.813333 698.666667 0 643.434667 0 575.552V123.114667C0 55.232 57.813333 0 128.896 0h766.229333C966.186667 0 1024 55.232 1024 123.114667v452.437333c0 67.882667-57.813333 123.114667-128.874667 123.114667z" p-id="5632"></path><path d="M401.386667 350.421333c-49.536 0-89.856-40.32-89.856-89.856s40.32-89.856 89.856-89.856 89.856 40.32 89.856 89.856-40.32 89.856-89.856 89.856z m0-137.045333c-26.026667 0-47.189333 21.162667-47.189334 47.189333s21.162667 47.189333 47.189334 47.189334 47.189333-21.162667 47.189333-47.189334-21.162667-47.189333-47.189333-47.189333z" p-id="5633"></path><path d="M518.229333 1024H486.613333a55.296 55.296 0 0 1-55.210666-55.253333V740.074667h-26.730667V968.746667a55.317333 55.317333 0 0 1-55.253333 55.253333h-31.573334a55.317333 55.317333 0 0 1-55.253333-55.253333V645.205333l-30.805333 46.208c-16.384 24.426667-52.138667 31.594667-76.650667 15.296l-9.28-6.186666a55.36 55.36 0 0 1-15.338667-76.608L277.546667 403.413333c25.173333-41.664 87.744-50.581333 135.701333-50.581333 19.178667 0 33.941333 1.429333 38.357333 1.92 18.133333 0.170667 35.733333 4.352 51.925334 12.202667l110.421333-165.482667c16.213333-24.405333 52.010667-31.68 76.608-15.317333l9.28 6.186666c12.266667 8.170667 20.608 20.672 23.509333 35.178667a54.912 54.912 0 0 1-8.234666 41.493333l-141.610667 212.288V968.746667A55.317333 55.317333 0 0 1 518.229333 1024z m-156.224-326.592h112.064V968.746667c0 6.805333 5.738667 12.586667 12.544 12.586666h31.616a12.8 12.8 0 0 0 12.608-12.586666l-0.32-497.834667 3.733334-7.637333L679.616 245.333333c1.856-2.794667 2.517333-6.165333 1.856-9.472a12.416 12.416 0 0 0-5.312-8.021333l-9.258667-6.165333a12.565333 12.565333 0 0 0-17.429333 3.456l-134.016 200.832-17.962667-13.056a79.786667 79.786667 0 0 0-47.146666-15.488l-2.581334-0.149334c-0.149333-0.021333-14.72-1.770667-34.496-1.770666-51.52 0-87.850667 11.221333-99.690666 30.784L166.037333 647.552a12.757333 12.757333 0 0 0 3.498667 17.450667l9.28 6.186666a12.736 12.736 0 0 0 17.514667-3.52l108.928-163.392V968.746667c0 6.805333 5.76 12.586667 12.586666 12.586666h31.573334c6.826667 0 12.586667-5.781333 12.586666-12.586666V697.408zM774.890667 127.829333H249.109333a21.333333 21.333333 0 0 1 0-42.666666h525.781334a21.333333 21.333333 0 1 1 0 42.666666z" p-id="5634"></path></svg>