<?xml version="1.0" standalone="no"?><!DOCTYPE svg PUBLIC "-//W3C//DTD SVG 1.1//EN" "http://www.w3.org/Graphics/SVG/1.1/DTD/svg11.dtd"><svg t="1582990687618" class="icon" viewBox="0 0 1024 1024" version="1.1" xmlns="http://www.w3.org/2000/svg" p-id="4801" xmlns:xlink="http://www.w3.org/1999/xlink" width="48" height="48"><defs><style type="text/css"></style></defs><path d="M964.992 776.682667H450.453333a59.050667 59.050667 0 0 1-58.986666-58.986667V396.245333a59.050667 59.050667 0 0 1 58.986666-58.986666h514.538667A59.072 59.072 0 0 1 1024 396.245333v321.450667a59.050667 59.050667 0 0 1-59.008 58.986667zM450.453333 379.925333a16.341333 16.341333 0 0 0-16.32 16.32v321.450667c0 9.002667 7.317333 16.32 16.32 16.32h514.538667a16.341333 16.341333 0 0 0 16.341333-16.32V396.245333a16.341333 16.341333 0 0 0-16.341333-16.32H450.453333z" p-id="4802"></path><path d="M707.733333 887.744a21.333333 21.333333 0 0 1-21.333333-21.333333v-111.082667a21.333333 21.333333 0 1 1 42.666667 0v111.082667a21.333333 21.333333 0 0 1-21.333334 21.333333z" p-id="4803"></path><path d="M891.584 898.325333H523.925333a21.333333 21.333333 0 1 1 0-42.666666h367.658667a21.333333 21.333333 0 1 1 0 42.666666zM352.128 898.325333H0V125.653333h352.128v772.672zM42.666667 855.658667h266.794666V168.32H42.666667v687.338667z" p-id="4804"></path><path d="M256.725333 266.176h-166.613333a21.333333 21.333333 0 0 1 0-42.666667h166.613333a21.333333 21.333333 0 0 1 0 42.666667zM256.725333 607.381333h-166.613333a21.333333 21.333333 0 1 1 0-42.666666h166.613333a21.333333 21.333333 0 1 1 0 42.666666zM256.725333 692.032h-166.613333a21.333333 21.333333 0 1 1 0-42.666667h166.613333a21.333333 21.333333 0 1 1 0 42.666667zM256.725333 776.704h-166.613333a21.333333 21.333333 0 1 1 0-42.666667h166.613333a21.333333 21.333333 0 1 1 0 42.666667z" p-id="4805"></path></svg>