<?xml version="1.0" standalone="no"?><!DOCTYPE svg PUBLIC "-//W3C//DTD SVG 1.1//EN" "http://www.w3.org/Graphics/SVG/1.1/DTD/svg11.dtd"><svg t="1582990564964" class="icon" viewBox="0 0 1024 1024" version="1.1" xmlns="http://www.w3.org/2000/svg" p-id="3796" xmlns:xlink="http://www.w3.org/1999/xlink" width="48" height="48"><defs><style type="text/css"></style></defs><path d="M512.064 559.146667c-103.957333 0-192.064-75.925333-220.992-180.010667 0.661333 4.544 1.578667 9.237333 2.773333 14.101333 2.410667 9.813333 6.208 20.181333 10.218667 31.146667 9.088 24.768 19.370667 52.821333 15.104 82.197333a21.333333 21.333333 0 0 1-29.802667 16.426667c-4.032-1.813333-8.32-2.816-12.586666-3.925333-3.690667-0.96-7.381333-1.92-11.050667-3.114667l-8.213333-2.752c-12.821333-4.352-27.370667-9.28-38.506667-9.962667-2.794667-0.149333-5.952 0.192-9.045333 0.448-12.522667 1.109333-35.754667 3.178667-50.453334-18.688-12.885333-19.157333-6.122667-49.6-0.832-61.333333 1.792-3.968 3.776-7.082667 5.76-10.005333 0.597333-0.896 1.621333-2.410667 1.685334-2.709334 0.341333-1.28 0.384-3.584 0.426666-6.037333 0.021333-2.304 0.085333-4.629333 0.277334-6.997333 3.093333-38.229333 10.773333-85.824 43.2-115.370667 2.773333-2.56 5.376-5.333333 7.978666-8.085333 5.290667-5.610667 11.285333-11.968 19.072-17.450667 6.656-4.736 13.461333-8.277333 20.053334-11.690667 5.12-2.645333 10.24-5.226667 14.890666-8.512a41.6 41.6 0 0 0 8.192-8.106666C301.717333 95.850667 398.464 0 512.021333 0c113.493333 0 210.261333 95.850667 231.808 228.736 2.837333 3.562667 5.504 6.186667 8.213334 8.128 4.650667 3.285333 9.813333 5.888 14.933333 8.554667 6.549333 3.392 13.312 6.912 20.010667 11.648 7.68 5.397333 13.632 11.712 18.88 17.28 2.645333 2.773333 5.248 5.589333 8.128 8.192 32.405333 29.504 40.085333 77.141333 43.178666 115.349333 0.192 2.389333 0.256 4.8 0.32 7.168 0.042667 2.602667 0.085333 4.842667 0.448 6.229333l1.642667 2.474667c1.962667 2.88 3.925333 5.930667 5.717333 9.813333 5.354667 11.946667 12.074667 42.410667-0.810666 61.504-14.677333 21.824-37.888 19.754667-50.410667 18.666667-3.114667-0.277333-6.208-0.661333-9.066667-0.448-11.157333 0.704-25.770667 5.653333-38.656 10.005333l-7.957333 2.666667c-3.776 1.216-7.466667 2.176-11.114667 3.114667-4.288 1.109333-8.554667 2.112-12.629333 3.925333a21.312 21.312 0 0 1-29.802667-16.426667c-4.245333-29.333333 5.994667-57.344 15.061334-82.048 4.010667-11.008 7.829333-21.397333 10.218666-31.296a149.333333 149.333333 0 0 0 2.666667-13.205333c-29.184 103.616-117.098667 179.114667-220.736 179.114667z m-188.373333-254.741334v0.512c0 116.650667 84.501333 211.562667 188.373333 211.562667s188.373333-94.912 188.373333-211.562667l-0.021333-2.709333c-51.050667-1.514667-115.328-5.418667-135.552-15.509333a42.496 42.496 0 0 1-5.589333-3.328 28.138667 28.138667 0 0 1-16.725334 2.410666 21.397333 21.397333 0 0 1-26.666666 11.754667c-14.357333-4.992-34.346667-14.528-42.176-39.594667-2.709333-8.682667-3.712-20.8-3.861334-36.074666-15.061333 29.269333-29.717333 59.264-32.490666 67.797333a21.333333 21.333333 0 0 1-20.288 14.72h-2.666667a21.290667 21.290667 0 0 1-19.370667-12.416 50.901333 50.901333 0 0 1-3.605333-11.712 0.469333 0.469333 0 0 0-0.085333 0.106667c-6.570667 7.445333-15.189333 14.314667-26.346667 20.992a21.333333 21.333333 0 0 1-10.965333 3.029333h-30.336z m429.546666-18.026666l2.922667 5.248c5.056 9.088 8.96 16.234667 10.496 19.861333 11.754667 27.562667 13.376 57.642667 4.928 91.904-2.965333 12.16-7.36 24.170667-11.605333 35.818667-4.416 12.074667-8.704 23.786667-11.2 35.008l3.904-1.322667c15.402667-5.205333 32.832-11.114667 49.664-12.181333 4.992-0.298667 10.218667 0.064 15.509333 0.533333 3.605333 0.32 9.578667 0.832 11.285333 0.192 0.938667-3.093333-0.32-14.954667-2.666666-20.202667-0.618667-1.344-1.493333-2.517333-2.261334-3.669333-2.389333-3.562667-5.696-8.448-7.616-15.808a69.76 69.76 0 0 1-1.728-15.829333c-0.021333-1.493333-0.042667-3.029333-0.170666-4.565334-2.261333-28.074667-7.786667-67.605333-29.376-87.274666-3.648-3.306667-7.04-6.890667-10.432-10.474667-4.437333-4.693333-8.256-8.746667-12.458667-11.712a96.256 96.256 0 0 0-9.194667-5.525333z m-535.338666 174.186666c1.258667 0 2.496 0.042667 3.733333 0.106667 16.832 1.045333 34.218667 6.933333 49.557333 12.117333l4.074667 1.365334c-2.517333-11.242667-6.826667-22.976-11.264-35.114667-4.245333-11.584-8.64-23.573333-11.605333-35.733333-8.362667-34.304-6.72-64.362667 4.970666-91.904 1.493333-3.52 5.248-10.410667 10.112-19.178667l3.285334-5.888a90.24 90.24 0 0 0-9.045334 5.482667c-4.330667 3.050667-8.192 7.146667-12.672 11.904-3.328 3.52-6.656 7.04-10.261333 10.325333-21.674667 19.733333-27.157333 59.242667-29.418667 87.232-0.106667 1.429333-0.106667 2.901333-0.149333 4.352a65.002667 65.002667 0 0 1-1.770667 16.042667 48.832 48.832 0 0 1-7.552 15.765333c-0.746667 1.130667-1.6 2.261333-2.282666 3.776-2.368 5.248-3.605333 17.088-2.197334 20.8 1.109333-0.042667 7.232-0.490667 10.794667-0.832 3.946667-0.298667 7.893333-0.618667 11.690667-0.618667z m89.664-198.4c1.621333 0.32 3.178667 0.853333 4.672 1.514667a21.12 21.12 0 0 1 8.917333-1.941333h26.666667c4.906667-3.285333 8.768-6.506667 11.52-9.621334 5.44-6.165333 10.901333-17.6 15.274666-26.773333l2.773334-5.781333c2.965333-6.058667 9.792-19.968 9.984-27.584v-0.789334a21.333333 21.333333 0 0 1 21.184-21.333333h0.149333a21.333333 21.333333 0 0 1 21.333333 21.034667V205.930667c1.770667-3.498667 3.456-6.762667 4.992-9.728 37.141333-71.722667 40.96-73.984 55.061334-73.984 5.781333 0 11.925333 2.645333 15.957333 6.784 8.661333 8.938667 8.32 19.882667 7.146667 56.085333-0.618667 19.029333-1.642667 50.858667 1.258666 60.117333a17.493333 17.493333 0 0 0 0.746667 2.005334 39.893333 39.893333 0 0 1 1.6-1.706667c2.944-2.922667 10.688-10.645333 22.293333-9.365333 3.968 0.448 7.530667 1.813333 10.666667 4.096 1.322667-0.448 2.730667-0.832 4.266667-1.109334 15.466667-2.816 24.448 4.821333 28.288 8.085334 9.984 5.226667 54.677333 10.453333 120.938666 12.352a21.333333 21.333333 0 0 1 8.896 2.218666c0.981333-0.426667 1.984-0.768 3.008-1.045333a111.274667 111.274667 0 0 1-9.002666-11.264 21.205333 21.205333 0 0 1-3.669334-9.216C685.781333 125.781333 605.674667 42.666667 512.021333 42.666667c-93.717333 0-173.802667 83.114667-190.442666 197.653333a21.482667 21.482667 0 0 1-3.733334 9.301333c-3.413333 4.778667-6.784 8.917333-10.282666 12.544z" p-id="3797" fill="#d81e06"></path><path d="M895.082667 1024H128.853333a21.333333 21.333333 0 0 1-21.248-19.434667 452.245333 452.245333 0 0 1-1.984-40.597333c0-179.648 105.002667-341.077333 267.52-411.242667a21.290667 21.290667 0 0 1 28.544 26.752l-34.24 95.808 135.850667-60.885333a21.184 21.184 0 0 1 17.450667 0l135.829333 60.885333-34.218667-95.850666a21.290667 21.290667 0 0 1 28.544-26.730667c162.474667 70.208 267.477333 231.637333 267.477334 411.264 0 12.394667-0.661333 25.706667-2.026667 40.64a21.376 21.376 0 0 1-21.269333 19.392zM148.736 981.333333h726.485333c0.32-6.08 0.448-11.84 0.448-17.365333 0-144.64-75.114667-276.224-195.072-348.16l32.938667 92.245333a21.333333 21.333333 0 0 1-28.821333 26.624L512 657.258667l-172.778667 77.418666a21.333333 21.333333 0 0 1-28.8-26.645333l32.96-92.202667c-120 71.914667-195.093333 203.477333-195.093333 348.138667 0 5.504 0.149333 11.285333 0.448 17.365333z" p-id="3798" fill="#d81e06"></path></svg>