<?xml version="1.0" standalone="no"?><!DOCTYPE svg PUBLIC "-//W3C//DTD SVG 1.1//EN" "http://www.w3.org/Graphics/SVG/1.1/DTD/svg11.dtd"><svg t="1582990663471" class="icon" viewBox="0 0 1024 1024" version="1.1" xmlns="http://www.w3.org/2000/svg" p-id="4661" xmlns:xlink="http://www.w3.org/1999/xlink" width="48" height="48"><defs><style type="text/css"></style></defs><path d="M892.331278 1023.829362H451.850025c-8.297284 0-15.848025-4.82053-19.346109-12.328612l-47.437427-102.06299c-6.270955 0.063989-12.584569 0.170638-18.898184 0.298617-11.56074 0.191968-23.14281 0.405266-34.682219 0.405266-22.289618 0-40.249292-0.789202-56.502583-2.452924-3.903349-0.426596-8.062656-0.746542-12.435261-1.087819-29.691051-2.303616-74.568905-5.8017-92.208632-42.744876-8.787869-18.492918-4.735211-36.921846-1.471755-51.746042 3.199467-14.568239 4.223296-21.521746 0.511915-26.854191-2.090318-3.007499-3.967339-5.353774-5.503083-7.337444-11.667389-14.845526-13.395101-24.955841-5.887019-42.787535-5.204466-3.476754-8.958507-8.595901-11.347442-15.314781-3.604733-10.152975-1.87702-19.858024-0.597233-26.93951 0.298617-1.685052 0.703883-3.946009 0.87452-5.609732-2.87952-1.151808-7.764039-2.431595-11.262123-3.348775-8.211965-2.154308-17.511748-4.564573-25.446425-9.61973-12.605899-8.041326-17.063823-18.25829-18.599567-25.425096-4.052658-19.068822 7.465422-36.55924 16.722546-50.615564 3.519413-5.353774 7.145476-10.878187 8.70255-14.653558 7.764039-19.026162 14.824196-38.990835 21.628395-58.294284l6.505583-18.30095c10.707549-29.925679 13.672388-54.198967 9.321113-76.317947-1.087819-5.652391-2.644893-10.57957-4.137977-15.4001-2.708882-8.851858-5.8017-18.855524-6.462923-31.397434a454.046992 454.046992 0 0 1-0.213298-33.231795c0.106649-5.695051 0.213298-11.368772 0.191968-17.021163 0-7.294784 0.575904-15.186802 1.791701-24.123979 0.063989-26.171638 27.600733-103.449425 48.674555-134.100317 1.706382-2.986169 3.455424-5.844359 5.289785-8.425262a78.066989 78.066989 0 0 1 7.934677-9.470422C285.712381 57.398434 401.063823 0 524.200633 0c225.519747 0 408.9985 192.095984 408.9985 428.216631 0 99.16214-33.125146 195.807365-93.27512 272.27462-4.713881 7.956007-9.363773 15.784036-14.376271 23.313448-4.308615 6.484253-8.873188 12.371271-13.800367 18.428929-8.169305 125.995001 95.493418 244.908515 96.559907 246.124312A21.372438 21.372438 0 0 1 892.331278 1023.829362z m-426.872854-42.659557h383.573404c-34.788869-49.847692-89.051825-145.938344-79.240127-249.30245 0.405266-4.244626 2.068989-8.275954 4.777871-11.560739 5.353774-6.484253 10.771538-13.053824 15.485419-20.092652 4.82053-7.294784 9.321113-14.909515 13.800366-22.502916 0.469255-0.831861 1.151808-1.813031 1.727712-2.559573 54.796201-69.129812 84.956507-156.83786 84.956508-246.913515C890.539577 215.62273 726.214964 42.659557 524.200633 42.659557c-110.253624 0-213.66039 51.746042-283.664722 141.949675a18.812865 18.812865 0 0 1-1.621063 1.834361c-1.642393 1.663723-3.199467 3.327445-4.543243 5.225795a62.133644 62.133644 0 0 0-3.412765 5.567073 26.128979 26.128979 0 0 1-1.151808 1.813031c-18.748875 26.598234-39.118814 90.971505-41.614397 107.352774 0.341276 2.090318 0.362606 4.265956 0.042659 6.441593a144.765206 144.765206 0 0 0-1.749042 20.689885c0.02133 5.887019-0.085319 11.880687-0.191968 17.853025-0.170638 10.088985-0.383936 20.17797 0.149309 30.202966 0.383936 7.294784 2.260957 13.395101 4.649891 21.116481 1.89835 6.206966 3.83936 12.54191 5.225796 19.772704 5.8017 29.541743 2.218297 61.899017-11.027495 98.884853l-6.420264 18.130311c-6.996167 19.794034-14.226962 40.270622-22.374937 60.256624-3.135477 7.614731-7.934678 14.909515-12.54191 21.927012-3.199467 4.884519-8.211965 12.456591-9.939676 16.978504 3.348775 1.599733 8.318614 2.90085 12.413931 3.988669 12.328612 3.220797 27.664723 7.230795 36.431261 20.263289 9.342443 13.757707 6.74021 28.517914 5.161806 37.391101 3.370105 1.343776 6.932178 3.519413 10.216964 7.060157 12.563239 13.373771 12.797867 28.709882 0.575904 40.910515l-0.02133 0.02133-1.471754 3.135477 0.085319 0.127979c1.94101 2.474254 4.287285 5.460423 6.953508 9.321113 14.738877 21.2018 9.769038 43.854024 6.121646 60.363273-2.154308 9.769038-4.159307 18.983503-1.663723 24.251958 6.996167 14.653558 34.724879 16.807865 56.993168 18.535577 4.7992 0.383936 9.363773 0.725212 13.587069 1.194468 14.696217 1.514414 31.248125 2.218297 52.044659 2.218297 11.304783 0 22.652225-0.213298 33.957007-0.405266 11.112815-0.191968 22.204299-0.383936 33.167806-0.405266h0.021329c8.297284 0 15.848025 4.82053 19.346109 12.328612L465.458424 981.169805z" p-id="4662"></path><path d="M527.272121 684.835194c-148.625896 0-269.544409-120.918514-269.544409-269.523079 0-148.625896 120.918514-269.544409 269.544409-269.54441 148.647225 0 269.565739 120.918514 269.565739 269.54441 0 148.604566-120.918514 269.523079-269.565739 269.523079z m0-496.407932c-125.09915 0-226.884853 101.785702-226.884852 226.884853s101.764373 226.863523 226.884852 226.863522 226.906182-101.764373 226.906183-226.863522c0-125.09915-101.807032-226.884853-226.906183-226.884853z" p-id="4663"></path><path d="M385.365106 415.312115m-41.315781 0a41.315781 41.315781 0 1 0 82.631562 0 41.315781 41.315781 0 1 0-82.631562 0Z" p-id="4664"></path><path d="M527.272121 415.312115m-41.294451 0a41.294451 41.294451 0 1 0 82.588902 0 41.294451 41.294451 0 1 0-82.588902 0Z" p-id="4665"></path><path d="M669.200467 415.312115m-41.315781 0a41.315781 41.315781 0 1 0 82.631561 0 41.315781 41.315781 0 1 0-82.631561 0Z" p-id="4666"></path></svg>