<?xml version="1.0" standalone="no"?><!DOCTYPE svg PUBLIC "-//W3C//DTD SVG 1.1//EN" "http://www.w3.org/Graphics/SVG/1.1/DTD/svg11.dtd"><svg t="1582990617081" class="icon" viewBox="0 0 1024 1024" version="1.1" xmlns="http://www.w3.org/2000/svg" p-id="4384" xmlns:xlink="http://www.w3.org/1999/xlink" width="48" height="48"><defs><style type="text/css"></style></defs><path d="M237.098667 259.264c-60.096 0-108.992-48.896-108.992-108.992s48.896-108.992 108.992-108.992 108.992 48.896 108.992 108.992-48.896 108.992-108.992 108.992z m0-175.317333c-36.565333 0-66.325333 29.76-66.325334 66.325333s29.76 66.325333 66.325334 66.325333 66.325333-29.76 66.325333-66.325333-29.738667-66.325333-66.325333-66.325333zM460.970667 980.906667a67.306667 67.306667 0 0 1-67.242667-67.221334v-207.488h-146.069333c-3.648 0-7.232-0.32-10.709334-0.874666H185.898667a82.602667 82.602667 0 0 1-82.517334-82.538667V344.085333a82.602667 82.602667 0 0 1 82.517334-82.517333h38.613333c35.456 0 81.045333 25.557333 106.688 59.669333L416 407.68l118.805333-86.933333c28.928-21.12 72.874667-14.229333 93.973334 14.549333 10.624 14.528 14.933333 32.298667 12.16 50.069333a66.688 66.688 0 0 1-26.794667 43.925334l-165.717333 121.258666c-26.133333 19.114667-65.130667 15.829333-87.68-7.210666l-23.594667-24.042667v52.501333h123.797333a67.264 67.264 0 0 1 67.2 67.2v274.688a67.264 67.264 0 0 1-67.178666 67.221334zM185.898667 304.234667a39.893333 39.893333 0 0 0-39.850667 39.850666v278.698667c0 21.973333 17.877333 39.872 39.850667 39.872h52.864c1.322667 0 2.645333 0.128 3.946666 0.384 1.6 0.298667 3.264 0.490667 4.949334 0.490667h167.402666a21.333333 21.333333 0 0 1 21.333334 21.333333v228.821333c0 13.546667 11.029333 24.554667 24.576 24.554667 13.525333 0 24.533333-11.029333 24.533333-24.554667V638.997333a24.533333 24.533333 0 0 0-24.533333-24.533333h-145.130667a21.333333 21.333333 0 0 1-21.333333-21.333333v-126.037334a21.354667 21.354667 0 0 1 36.565333-14.933333l60.181333 61.333333a25.173333 25.173333 0 0 0 32.042667 2.624l165.717333-121.258666a24.405333 24.405333 0 0 0 5.354667-34.325334 25.130667 25.130667 0 0 0-34.346667-5.312l-133.717333 97.813334a21.333333 21.333333 0 0 1-27.818667-2.282667L299.733333 350.08a20.736 20.736 0 0 1-1.984-2.325333c-17.28-23.573333-50.816-43.52-73.237333-43.52h-38.613333zM733.504 409.045333a21.312 21.312 0 0 1-21.333333-21.333333V88.106667a21.333333 21.333333 0 0 1 27.84-20.330667L961.706667 138.794667a21.333333 21.333333 0 0 1 14.826666 20.309333v159.125333a21.333333 21.333333 0 0 1-14.954666 20.352l-221.717334 69.482667a20.906667 20.906667 0 0 1-6.357333 0.981333z m21.333333-291.712v241.344l179.050667-56.106666V174.677333L754.837333 117.333333z" p-id="4385"></path><path d="M904.576 445.824h-117.077333a21.333333 21.333333 0 0 1-21.333334-21.333333v-45.674667a21.333333 21.333333 0 1 1 42.666667 0v24.341333h74.410667v-57.28a21.333333 21.333333 0 1 1 42.666666 0v78.613334a21.333333 21.333333 0 0 1-21.333333 21.333333zM733.482667 982.698667a21.333333 21.333333 0 0 1-17.770667-33.109334l261.696-395.477333-34.176-55.936H610.837333a21.333333 21.333333 0 1 1 0-42.666667h344.384c7.445333 0 14.336 3.882667 18.218667 10.218667l47.466667 77.717333a21.333333 21.333333 0 0 1-0.426667 22.890667L751.296 973.141333a21.333333 21.333333 0 0 1-17.813333 9.557334z" p-id="4386"></path><path d="M955.2 980.906667H610.837333a21.333333 21.333333 0 1 1 0-42.666667h344.384a21.333333 21.333333 0 1 1-0.021333 42.666667zM355.669333 744.170667H98.218667a21.333333 21.333333 0 0 1-20.757334-16.448L0.554667 401.130667a21.354667 21.354667 0 0 1 41.536-9.770667l73.024 310.144h240.554666a21.333333 21.333333 0 1 1 0 42.666667z" p-id="4387"></path><path d="M216.725333 980.906667a21.333333 21.333333 0 0 1-21.333333-21.333334V732.074667a21.333333 21.333333 0 1 1 42.666667 0V959.573333a21.333333 21.333333 0 0 1-21.333334 21.333334z" p-id="4388"></path><path d="M303.765333 980.906667H133.376a21.333333 21.333333 0 1 1 0-42.666667h170.389333a21.333333 21.333333 0 1 1 0 42.666667z" p-id="4389"></path></svg>