<?xml version="1.0" standalone="no"?><!DOCTYPE svg PUBLIC "-//W3C//DTD SVG 1.1//EN" "http://www.w3.org/Graphics/SVG/1.1/DTD/svg11.dtd"><svg t="1582990836225" class="icon" viewBox="0 0 1024 1024" version="1.1" xmlns="http://www.w3.org/2000/svg" p-id="6057" xmlns:xlink="http://www.w3.org/1999/xlink" width="48" height="48"><defs><style type="text/css"></style></defs><path d="M511.957333 309.589333c-85.333333 0-154.752-69.44-154.752-154.794666S426.624 0 511.957333 0c85.397333 0 154.858667 69.44 154.858667 154.794667s-69.461333 154.794667-154.858667 154.794666z m0-266.922666a112.234667 112.234667 0 0 0-112.085333 112.128 112.234667 112.234667 0 0 0 112.085333 112.128 112.298667 112.298667 0 0 0 112.192-112.128A112.298667 112.298667 0 0 0 511.957333 42.666667zM691.712 1024H332.224a21.333333 21.333333 0 0 1-21.333333-21.333333V648.512l-141.44 206.08c-16.853333 24.426667-46.016 38.976-78.058667 38.976a99.626667 99.626667 0 0 1-45.504-10.922667c-22.037333-11.264-37.930667-30.506667-43.584-52.736-5.354667-21.056-1.365333-42.816 11.242667-61.226666l258.752-376.938667c12.181333-17.621333 35.946667-34.154667 55.317333-38.464 45.482667-10.154667 117.269333-16.213333 192-16.213333 42.773333 0 122.730667 2.133333 177.493333 16.384 17.024 4.373333 41.28 18.944 54.592 38.250666l258.794667 376.917334c12.608 18.453333 16.576 40.192 11.2 61.226666-5.674667 22.272-21.610667 41.493333-43.733333 52.821334a99.648 99.648 0 0 1-45.376 10.88c-32.106667 0-61.269333-14.570667-78.016-38.976l-141.504-206.101334L713.045333 1002.666667a21.333333 21.333333 0 0 1-21.333333 21.333333z m-338.154667-42.666667h316.821334V579.733333a21.333333 21.333333 0 0 1 38.912-12.074666l180.437333 262.805333c13.098667 19.093333 45.610667 26.133333 68.757333 14.293333 11.434667-5.845333 19.178667-14.848 21.866667-25.386666 2.304-9.130667 0.554667-18.304-5.077333-26.581334L716.544 415.914667c-6.421333-9.301333-21.184-18.837333-30.122667-21.141334-36.714667-9.557333-97.472-15.018667-166.805333-15.018666-70.72 0-140.736 5.824-182.698667 15.189333-8.170667 1.813333-22.826667 11.413333-29.461333 21.013333L48.725333 792.832c-5.653333 8.256-7.424 17.450667-5.098666 26.581333 2.666667 10.517333 10.389333 19.498667 21.738666 25.301334 23.189333 12.010667 55.722667 4.885333 68.906667-14.272l180.352-262.762667a21.333333 21.333333 0 0 1 38.933333 12.053333V981.333333z" p-id="6058"></path></svg>