<?xml version="1.0" standalone="no"?><!DOCTYPE svg PUBLIC "-//W3C//DTD SVG 1.1//EN" "http://www.w3.org/Graphics/SVG/1.1/DTD/svg11.dtd"><svg t="1582990804565" class="icon" viewBox="0 0 1024 1024" version="1.1" xmlns="http://www.w3.org/2000/svg" p-id="5769" xmlns:xlink="http://www.w3.org/1999/xlink" width="48" height="48"><defs><style type="text/css"></style></defs><path d="M1002.666667 533.333333H21.333333a21.333333 21.333333 0 0 1-21.333333-21.333333V21.333333a21.333333 21.333333 0 0 1 21.333333-21.333333h981.333334a21.333333 21.333333 0 0 1 21.333333 21.333333v490.666667a21.333333 21.333333 0 0 1-21.333333 21.333333zM42.666667 490.666667h938.666666V42.666667H42.666667v448z" p-id="5770"></path><path d="M1002.666667 1024H21.333333a21.333333 21.333333 0 0 1-21.333333-21.333333V512a21.333333 21.333333 0 0 1 21.333333-21.333333h981.333334a21.333333 21.333333 0 0 1 21.333333 21.333333v490.666667a21.333333 21.333333 0 0 1-21.333333 21.333333zM42.666667 981.333333h938.666666V533.333333H42.666667v448z" p-id="5771"></path><path d="M122.24 519.808a21.397333 21.397333 0 0 1-20.885333-16.917333L22.186667 128.384a21.312 21.312 0 0 1 16.256-25.237333l120.469333-26.709334a21.397333 21.397333 0 0 1 25.493333 16.405334l79.189334 374.506666a21.333333 21.333333 0 0 1-16.256 25.237334l-120.469334 26.709333a21.376 21.376 0 0 1-4.629333 0.512zM68.288 140.224L138.666667 472.981333l78.805333-17.472L147.114667 122.752l-78.826667 17.472z" p-id="5772"></path><path d="M253.610667 519.808a21.397333 21.397333 0 0 1-20.885334-16.917333L153.536 128.384a21.333333 21.333333 0 0 1 16.256-25.237333l120.448-26.709334a21.397333 21.397333 0 0 1 25.493333 16.405334l79.189334 374.506666a21.333333 21.333333 0 0 1-16.256 25.237334l-120.448 26.709333a21.034667 21.034667 0 0 1-4.608 0.512zM199.658667 140.224l70.378666 332.778667 78.784-17.472-70.378666-332.778667-78.784 17.472z" p-id="5773"></path><path d="M384.96 519.808a21.397333 21.397333 0 0 1-20.885333-16.917333L284.885333 128.384a21.333333 21.333333 0 0 1 16.256-25.237333l120.448-26.709334a21.354667 21.354667 0 0 1 25.493334 16.405334l79.189333 374.506666a21.312 21.312 0 0 1-16.256 25.237334l-120.469333 26.709333a20.693333 20.693333 0 0 1-4.586667 0.512zM331.008 140.224l70.357333 332.778667 78.805334-17.472-70.378667-332.778667-78.784 17.472z" p-id="5774"></path><path d="M516.309333 519.808a21.397333 21.397333 0 0 1-20.885333-16.917333L416.256 128.384a21.333333 21.333333 0 0 1 16.256-25.237333l120.448-26.709334a21.418667 21.418667 0 0 1 25.514667 16.405334l79.210666 374.506666a21.333333 21.333333 0 0 1-16.256 25.237334l-120.490666 26.709333a21.376 21.376 0 0 1-4.629334 0.512zM462.357333 140.224l70.357334 332.778667 78.805333-17.472-70.357333-332.778667-78.805334 17.472z" p-id="5775"></path><path d="M647.658667 519.808a21.44 21.44 0 0 1-20.885334-16.917333L555.584 166.144a21.333333 21.333333 0 0 1 16.256-25.237333l120.469333-26.709334a21.418667 21.418667 0 0 1 25.514667 16.405334l71.189333 336.746666a21.333333 21.333333 0 0 1-16.256 25.237334l-120.448 26.709333a21.568 21.568 0 0 1-4.650666 0.512zM601.706667 177.984l62.378666 294.997333 78.784-17.472-62.357333-294.997333-78.805333 17.472zM920.128 1012.330667c-1.536 0-3.093333-0.170667-4.629333-0.490667l-120.448-26.709333a21.354667 21.354667 0 0 1-16.256-25.258667l79.168-374.506667c1.194667-5.568 4.544-10.432 9.322666-13.525333 4.821333-3.093333 10.645333-4.074667 16.170667-2.901333l120.469333 26.666666a21.333333 21.333333 0 0 1 16.277334 25.258667L940.992 995.413333a21.418667 21.418667 0 0 1-20.864 16.917334z m-95.210667-64.298667l78.784 17.450667 70.357334-332.778667-78.805334-17.450667-70.336 332.778667z" p-id="5776"></path><path d="M788.8 1012.330667c-1.536 0-3.093333-0.170667-4.629333-0.490667l-120.490667-26.709333a21.354667 21.354667 0 0 1-16.256-25.258667l79.210667-374.506667c1.194667-5.568 4.544-10.432 9.322666-13.525333 4.821333-3.093333 10.624-4.074667 16.170667-2.901333l120.448 26.666666a21.333333 21.333333 0 0 1 16.277333 25.258667L809.664 995.413333a21.418667 21.418667 0 0 1-20.864 16.917334z m-95.253333-64.298667l78.826666 17.450667 70.336-332.778667-78.784-17.450667-70.378666 332.778667z" p-id="5777"></path><path d="M657.408 1012.330667c-1.536 0-3.093333-0.170667-4.629333-0.490667l-120.448-26.709333a21.354667 21.354667 0 0 1-16.256-25.258667l79.189333-374.506667c1.194667-5.568 4.544-10.432 9.322667-13.525333 4.8-3.093333 10.624-4.074667 16.170666-2.901333l120.448 26.666666a21.333333 21.333333 0 0 1 16.277334 25.258667L678.293333 995.413333a21.418667 21.418667 0 0 1-20.885333 16.917334z m-95.189333-64.298667l78.784 17.450667 70.336-332.778667-78.762667-17.450667-70.357333 332.778667z" p-id="5778"></path><path d="M526.058667 1012.330667a22.4 22.4 0 0 1-4.608-0.490667l-120.469334-26.709333a21.333333 21.333333 0 0 1-16.256-25.258667l79.210667-374.506667a21.397333 21.397333 0 0 1 25.493333-16.426666l120.426667 26.666666a21.333333 21.333333 0 0 1 16.277333 25.258667L546.944 995.413333a21.418667 21.418667 0 0 1-20.885333 16.917334z m-95.232-64.298667l78.805333 17.450667 70.336-332.778667-78.762667-17.450667-70.378666 332.778667z" p-id="5779"></path><path d="M394.709333 1012.330667a22.4 22.4 0 0 1-4.608-0.490667l-120.469333-26.709333a21.333333 21.333333 0 0 1-16.256-25.258667l71.210667-336.789333a21.397333 21.397333 0 0 1 25.493333-16.426667l120.448 26.709333a21.333333 21.333333 0 0 1 16.256 25.258667L415.573333 995.413333a21.397333 21.397333 0 0 1-20.864 16.917334z m-95.232-64.298667l78.805334 17.450667 62.357333-295.04-78.784-17.450667-62.378667 295.04z" p-id="5780"></path></svg>