<?xml version="1.0" standalone="no"?><!DOCTYPE svg PUBLIC "-//W3C//DTD SVG 1.1//EN" "http://www.w3.org/Graphics/SVG/1.1/DTD/svg11.dtd"><svg t="1582990816924" class="icon" viewBox="0 0 1024 1024" version="1.1" xmlns="http://www.w3.org/2000/svg" p-id="5915" xmlns:xlink="http://www.w3.org/1999/xlink" width="48" height="48"><defs><style type="text/css"></style></defs><path d="M938.090667 601.706667H85.952a21.333333 21.333333 0 0 1-21.333333-21.333334v-92.608a21.333333 21.333333 0 0 1 21.333333-21.333333h852.138667a21.333333 21.333333 0 0 1 21.333333 21.333333v92.608a21.333333 21.333333 0 0 1-21.333333 21.333334z m-830.805334-42.666667h809.472v-49.941333H107.285333v49.941333z" p-id="5916"></path><path d="M836.16 1024a21.333333 21.333333 0 0 1-21.333333-21.333333V580.373333a21.333333 21.333333 0 1 1 42.666666 0V1002.666667a21.333333 21.333333 0 0 1-21.333333 21.333333zM178.581333 1024a21.333333 21.333333 0 0 1-21.333333-21.333333v-50.794667a21.333333 21.333333 0 1 1 42.666667 0V1002.666667a21.333333 21.333333 0 0 1-21.333334 21.333333z" p-id="5917"></path><path d="M400.938667 954.965333H120a21.333333 21.333333 0 0 1-21.333333-21.333333V580.373333a21.333333 21.333333 0 0 1 21.333333-21.333333h280.938667a21.333333 21.333333 0 0 1 21.333333 21.333333v353.258667a21.333333 21.333333 0 0 1-21.333333 21.333333z m-259.605334-42.666666h238.272V601.706667H141.333333v310.592z" p-id="5918"></path><path d="M388.501333 778.325333H120a21.333333 21.333333 0 1 1 0-42.666666h268.501333a21.333333 21.333333 0 1 1 0 42.666666zM326.762667 683.584h-52.501334a21.333333 21.333333 0 1 1 0-42.666667h52.501334a21.333333 21.333333 0 1 1 0 42.666667zM326.762667 868.842667h-52.501334a21.333333 21.333333 0 1 1 0-42.666667h52.501334a21.333333 21.333333 0 1 1 0 42.666667zM823.744 399.530667H453.290667a21.333333 21.333333 0 0 1-21.333334-21.333334V84.928a21.333333 21.333333 0 0 1 21.333334-21.333333h370.453333a21.333333 21.333333 0 0 1 21.333333 21.333333v293.269333a21.333333 21.333333 0 0 1-21.333333 21.333334z m-349.12-42.666667h327.786667V106.261333H474.624v250.602667z" p-id="5919"></path><path d="M638.549333 464.384a21.333333 21.333333 0 0 1-21.333333-21.333333v-46.293334a21.333333 21.333333 0 1 1 42.666667 0v46.293334a21.333333 21.333333 0 0 1-21.333334 21.333333z" p-id="5920"></path><path d="M741.909333 464.384h-206.826666a21.333333 21.333333 0 1 1 0-42.666667h206.826666a21.333333 21.333333 0 1 1 0 42.666667zM373.077333 464.384H178.581333a21.333333 21.333333 0 0 1-21.333333-21.333333V21.333333a21.333333 21.333333 0 0 1 21.333333-21.333333h194.496a21.333333 21.333333 0 0 1 21.333334 21.333333v421.717334a21.333333 21.333333 0 0 1-21.333334 21.333333z m-173.162666-42.666667h151.829333V42.666667H199.914667v379.050666z" p-id="5921"></path><path d="M305.877333 108.16H245.76a21.333333 21.333333 0 0 1 0-42.666667h60.117333a21.333333 21.333333 0 0 1 0 42.666667zM275.84 350.016c-34.688 0-62.912-28.224-62.912-62.912s28.224-62.912 62.912-62.912 62.912 28.224 62.912 62.912-28.224 62.912-62.912 62.912z m0-83.157333c-11.157333 0-20.245333 9.088-20.245333 20.245333s9.088 20.245333 20.245333 20.245333c11.157333 0 20.245333-9.088 20.245333-20.245333s-9.088-20.245333-20.245333-20.245333z" p-id="5922"></path></svg>