<?xml version="1.0" standalone="no"?><!DOCTYPE svg PUBLIC "-//W3C//DTD SVG 1.1//EN" "http://www.w3.org/Graphics/SVG/1.1/DTD/svg11.dtd"><svg t="1582990638019" class="icon" viewBox="0 0 1024 1024" version="1.1" xmlns="http://www.w3.org/2000/svg" p-id="4524" xmlns:xlink="http://www.w3.org/1999/xlink" width="48" height="48"><defs><style type="text/css"></style></defs><path d="M608.618667 1024H121.216C54.378667 1024 0 968.938667 0 901.269333V122.730667C0 55.061333 54.378667 0 121.216 0h487.402667c66.837333 0 121.216 55.061333 121.216 122.730667v173.738666a21.333333 21.333333 0 1 1-42.666667 0V122.730667C687.168 78.592 651.946667 42.666667 608.618667 42.666667H121.216C77.909333 42.666667 42.666667 78.592 42.666667 122.730667v778.538666C42.666667 945.408 77.909333 981.333333 121.216 981.333333h487.402667c43.285333 0 78.528-35.925333 78.528-80.064V646.997333a21.333333 21.333333 0 1 1 42.666666 0v254.272c0 67.669333-54.357333 122.730667-121.194666 122.730667z" p-id="4525"></path><path d="M569.301333 191.168H142.037333a21.333333 21.333333 0 0 1 0-42.666667h427.242667a21.333333 21.333333 0 0 1 0.021333 42.666667zM569.301333 352.341333H142.037333a21.333333 21.333333 0 0 1 0-42.666666h427.242667a21.333333 21.333333 0 0 1 0.021333 42.666666zM355.648 513.514667H142.037333a21.333333 21.333333 0 0 1 0-42.666667h213.610667a21.333333 21.333333 0 0 1 0 42.666667zM293.312 674.666667H142.037333a21.333333 21.333333 0 1 1 0-42.666667h151.274667a21.333333 21.333333 0 1 1 0 42.666667zM272.853333 835.882667H142.037333a21.333333 21.333333 0 1 1 0-42.666667h130.816a21.333333 21.333333 0 1 1 0 42.666667zM305.578667 955.52a21.312 21.312 0 0 1-16.874667-34.368l11.861333-15.445333c26.218667-34.261333 51.669333-67.52 82.602667-93.546667a21.333333 21.333333 0 0 1-15.104-20.416l-0.021333-10.602667c-0.128-39.594667-0.234667-73.813333 15.957333-113.962666 2.816-6.976 5.461333-14.08 8.128-21.205334 11.178667-29.866667 22.741333-60.757333 45.952-85.418666 9.002667-9.536 18.474667-13.12 24.725333-15.488 2.133333-0.810667 4.522667-1.706667 5.226667-2.304 3.690667-3.114667 10.026667-15.765333 13.824-23.338667 3.434667-6.826667 6.72-13.269333 9.813333-18.090667 25.578667-39.914667 64.661333-72.576 107.178667-89.642666 5.098667-2.026667 10.410667-3.029333 15.125333-3.904a55.04 55.04 0 0 0 8.512-2.005334c2.026667-1.706667 5.589333-9.728 8.448-16.149333 3.562667-8 7.573333-17.066667 13.781334-24.704 21.269333-26.197333 64.192-44.437333 95.616-48.96a128.96 128.96 0 0 1 22.208-0.725333c7.936 0.256 14.72 0.448 19.925333-1.664 6.677333-2.688 13.44-6.442667 20.586667-10.410667 13.44-7.466667 28.672-15.914667 47.253333-19.050667 37.546667-6.314667 78.890667-7.893333 130.176-5.013333l4.778667 0.192c7.253333 0.256 15.466667 0.533333 24.192 3.413333a21.290667 21.290667 0 0 1 11.093333 32.064c-5.525333 8.32-12.928 14.72-19.477333 20.373334-4.266667 3.690667-8.298667 7.146667-11.050667 10.474666-15.232 18.496-27.2 42.688-37.781333 64.021334-2.773333 5.568-5.141333 11.050667-7.445334 16.32-5.333333 12.288-10.773333 24.832-19.52 35.968 1.962667 4.096 2.517333 8.106667 2.538667 11.264 0.256 37.973333-89.472 60.970667-90.368 61.162666-31.957333 6.677333-70.570667 17.621333-91.818667 26.389334 0.64 1.877333 1.024 3.626667 1.258667 5.162666 3.648 25.386667-28.309333 44.672-38.186667 49.962667-9.301333 4.970667-25.685333 13.781333-38.378666 23.338667 4.650667 7.36 8.042667 16.533333 6.762666 27.114666-2.922667 24.256-27.605333 36.778667-49.365333 47.808-9.045333 4.586667-25.322667 12.842667-29.098667 18.069334 0.405333 0.917333 0.874667 1.792 1.301334 2.709333 3.285333 6.976 9.386667 19.968 3.2 35.349333-8.32 20.629333-46.058667 31.445333-46.442667 31.552-13.546667 3.498667-27.968 3.306667-40.618667 3.221334-8.64-0.149333-16.917333-0.213333-23.253333 0.896-71.317333 11.968-111.658667 64.661333-158.357333 125.696l-11.968 15.594666a21.312 21.312 0 0 1-16.896 8.298667zM754.346667 357.781333a61.226667 61.226667 0 0 0-8.128 0.448c-22.336 3.2-54.933333 16.96-68.416 33.578667-2.624 3.242667-5.312 9.301333-7.914667 15.146667-5.013333 11.328-10.730667 24.149333-22.058667 33.045333-8.149333 6.378667-18.069333 8.234667-26.048 9.728-2.602667 0.490667-5.184 0.810667-7.189333 1.6-34.368 13.802667-66.154667 40.448-87.04 73.045333-2.432 3.776-4.928 8.853333-7.594667 14.186667-6.890667 13.738667-14.016 27.946667-24.32 36.693333-6.357333 5.397333-12.970667 7.893333-17.792 9.728-4.650667 1.749333-6.613333 2.538667-8.746666 4.821334-17.301333 18.389333-26.88 44.010667-37.034667 71.125333-2.794667 7.488-5.589333 14.912-8.533333 22.229333-13.056 32.384-12.970667 61.269333-12.842667 97.834667l0.021333 10.752v0.32a202.965333 202.965333 0 0 1 74.986667-28.202667c10.069333-1.728 20.650667-1.578667 30.805333-1.472 10.56 0.042667 21.418667 0.234667 29.525334-1.877333 3.136-0.810667 10.517333-4.096 15.488-6.976a4.266667 4.266667 0 0 0-0.213334-0.448c-2.624-5.610667-6.634667-14.08-5.589333-24.64 2.688-26.986667 29.226667-40.448 52.650667-52.309333 7.914667-4.010667 20.501333-10.389333 25.28-14.805334a44.757333 44.757333 0 0 0-6.997334-7.210666 21.333333 21.333333 0 0 1-2.752-29.568c14.485333-17.962667 39.573333-32.832 64.576-46.250667a72.533333 72.533333 0 0 0 7.530667-4.8 21.312 21.312 0 0 1-4.586667-11.221333c-1.301333-13.013333-3.989333-40.128 137.301334-69.674667 7.018667-1.450667 28.608-9.749333 43.818666-17.493333a21.333333 21.333333 0 0 1 7.722667-29.802667c12.138667-6.826667 17.045333-17.152 25.365333-36.330667 2.56-5.930667 5.226667-12.053333 8.341334-18.282666 11.178667-22.592 23.850667-48.128 41.28-69.952-37.653333-1.109333-69.162667 0.661333-97.898667 5.482666-11.328 1.92-22.144 7.914667-33.578667 14.272-7.978667 4.437333-16.234667 9.002667-25.408 12.693334-13.418667 5.376-25.984 5.034667-36.992 4.736a203.285333 203.285333 0 0 0-7.018666-0.149334z" p-id="4526"></path></svg>